<?xml version="1.0" standalone="no"?>
<!DOCTYPE svg PUBLIC "-//W3C//DTD SVG 20010904//EN"
 "http://www.w3.org/TR/2001/REC-SVG-20010904/DTD/svg10.dtd">
<svg version="1.0" xmlns="http://www.w3.org/2000/svg"
 width="243.000000pt" height="243.000000pt" viewBox="0 0 243.000000 243.000000"
 preserveAspectRatio="xMidYMid meet">
<metadata>
Created by potrace 1.14, written by Peter Selinger 2001-2017
</metadata>
<g transform="translate(0.000000,243.000000) scale(0.100000,-0.100000)"
fill="#000000" stroke="none">
<path d="M1199 2246 c-2 -2 -47 -6 -99 -10 -163 -10 -356 -74 -477 -157 -129
-89 -224 -224 -256 -364 -20 -89 -13 -257 17 -395 32 -143 27 -126 71 -245 72
-193 175 -383 284 -525 233 -303 460 -383 704 -247 68 38 163 124 247 224 38
44 38 45 106 148 142 216 266 524 292 730 9 64 8 229 -1 277 -25 136 -132 288
-266 377 -20 14 -38 27 -41 30 -3 4 -30 17 -60 31 -30 14 -57 28 -60 31 -5 7
-206 65 -255 74 -16 3 -66 8 -110 11 -44 3 -83 8 -86 10 -3 2 -8 2 -10 0z
m192 -121 c241 -43 445 -164 545 -325 93 -150 74 -451 -46 -735 -36 -86 -88
-191 -125 -252 -25 -41 -45 -76 -45 -80 0 -7 -63 -85 -107 -133 -18 -19 -33
-39 -33 -45 0 -16 -97 -107 -157 -148 -253 -170 -526 -8 -766 454 -159 308
-235 640 -190 834 17 75 34 112 80 172 79 104 223 200 348 232 22 6 43 11 47
12 101 29 325 36 449 14z"/>
<path d="M1084 2038 c-3 -5 -9 -6 -14 -3 -5 3 -11 1 -14 -4 -3 -5 -14 -7 -25
-4 -43 11 -295 -89 -308 -123 -3 -8 -11 -14 -18 -14 -7 0 -34 -25 -60 -55 -25
-30 -43 -55 -40 -55 4 0 2 -7 -6 -16 -28 -34 -47 -116 -46 -208 0 -50 2 -95 5
-100 3 -5 6 -23 8 -40 6 -67 23 -124 25 -85 6 111 49 187 123 219 72 31 194 9
224 -40 13 -21 13 -21 38 9 13 16 39 33 57 37 47 10 163 7 186 -6 19 -9 73 -6
92 6 20 12 119 5 146 -11 27 -16 53 -73 70 -153 12 -54 6 -347 -7 -347 -1 0
-3 -8 -5 -17 -3 -18 -39 -72 -63 -97 -56 -57 -207 -43 -231 22 -29 78 58 160
182 170 60 5 77 121 42 297 -5 27 -41 79 -60 88 -19 9 -27 7 -48 -12 -27 -25
-36 -69 -36 -186 0 -41 -3 -91 -6 -110 -12 -72 -92 -89 -88 -19 2 28 2 102 2
265 1 24 -35 58 -68 67 -24 6 -66 -8 -89 -30 -25 -24 -53 -34 -74 -27 -14 4
-18 2 -14 -5 4 -6 3 -11 -1 -11 -5 0 -9 -10 -10 -21 -2 -27 -3 -28 -42 -39
-47 -13 -70 13 -66 73 3 39 0 46 -18 52 -52 17 -77 1 -107 -67 -20 -48 -25
-165 -8 -225 14 -51 58 -93 98 -93 44 0 84 26 104 66 16 36 23 39 44 25 16
-10 10 -64 -10 -89 -31 -40 -65 -62 -104 -68 -66 -10 -118 1 -158 31 -37 28
-43 28 -27 -3 5 -9 31 -62 57 -117 27 -55 52 -102 56 -103 5 -2 6 -8 3 -12 -3
-5 -1 -11 4 -14 4 -3 8 2 8 12 0 39 4 50 28 76 28 30 99 65 139 68 52 5 59 24
52 160 -3 68 -7 144 -9 170 -6 83 35 136 80 103 15 -11 16 -19 7 -63 -11 -53
-11 -122 0 -207 4 -27 8 -85 10 -129 3 -69 1 -93 -15 -156 -6 -23 -50 -66 -89
-88 -36 -19 -110 -23 -159 -7 -23 7 -22 4 14 -46 21 -30 42 -55 47 -57 4 -2 8
-9 8 -16 0 -6 35 -46 79 -87 132 -128 226 -159 334 -111 50 23 146 93 147 107
1 6 19 24 40 40 50 38 157 175 166 212 4 15 18 42 31 59 12 17 23 34 23 38 0
4 8 26 19 49 10 23 31 71 46 107 15 36 31 73 37 84 14 27 18 56 7 56 -5 0 -21
-7 -34 -16 -30 -20 -113 -23 -125 -4 -17 27 -4 45 33 45 24 1 42 8 50 20 18
24 21 136 6 180 -15 41 -60 62 -101 46 -23 -9 -24 -13 -21 -73 8 -118 7 -303
0 -340 -9 -45 -30 -68 -62 -68 -26 0 -37 21 -30 53 10 49 18 126 19 192 2 61
-5 112 -30 241 -8 38 -3 40 112 50 93 7 140 -3 182 -41 27 -24 48 -67 44 -87
-1 -5 2 -8 7 -8 20 0 30 162 16 239 -7 39 -42 118 -61 141 -58 67 -124 126
-160 142 -13 6 -24 15 -24 20 0 4 -5 8 -11 8 -6 0 -27 7 -47 16 -70 31 -77 33
-120 44 -24 6 -56 13 -72 15 -16 2 -39 7 -52 10 -31 10 -258 12 -264 3z"/>
</g>
</svg>
